# xmcd
#
# Track frame offsets:
#	150
#	24160
#	37585
#	48675
#	60545
#	78520
#	96405
#	122560
#	147800
#	168180
#	186960
#	194635
#	205570
#	224460
#	248760
#	300200
#	316915
#
# Disc length: 4421 seconds
#
# Revision: 0
# Processed by: cddbd v1.5.2PL0 Copyright (c) Steve Scherf et al.
# Submitted via: EasyCDDAExtractor 10.0.2.1
#
DISCID=de114311
DTITLE=Alice Cooper - Le Zenith Paris 23-04-88
DYEAR=1988
DGENRE=Hard Rock
TTITLE0=Teenage Frankenstein
TTITLE1=No More Mr Nice Guy
TTITLE2=Billion Dollar Babies
TTITLE3=Is It My Body
TTITLE4=Eighteen
TTITLE5=Go To Hell
TTITLE6=Prince Of Darkness
TTITLE7=Chop Chop Chop
TTITLE8=Roses On White Lace
TTITLE9=Only Women Bleed
TTITLE10=Devil's Food
TTITLE11=Black Widow
TTITLE12=Dead Babies
TTITLE13=Killer
TTITLE14=School's Out Incl Solos
TTITLE15=Freedom
TTITLE16=Under My Wheels
EXTD=
EXTT0=
EXTT1=
EXTT2=
EXTT3=
EXTT4=
EXTT5=
EXTT6=
EXTT7=
EXTT8=
EXTT9=
EXTT10=
EXTT11=
EXTT12=
EXTT13=
EXTT14=
EXTT15=
EXTT16=
PLAYORDER=
